<svg version="1.1" id="Layer_1" xmlns="http://www.w3.org/2000/svg" xmlns:xlink="http://www.w3.org/1999/xlink" x="0px" y="0px" width="100%" viewBox="0 0 1024 1024" enable-background="new 0 0 1024 1024" xml:space="preserve" transform="matrix(-1,0,0,1,0,0)">
<path fill="#967151" opacity="1.000000" stroke="#967151" stroke-width="12" stroke-linejoin="round" stroke-linecap="round" d="
M485.944763,748.974731 
	C473.063080,758.216187 460.525391,767.324707 447.848785,776.235657 
	C440.718048,781.248169 432.973022,783.082397 424.903168,778.532043 
	C419.022003,775.215881 416.625854,769.889526 416.641968,763.101318 
	C416.737762,722.768921 416.689667,682.436218 416.691803,642.103577 
	C416.692780,624.103882 416.704437,606.104187 416.699005,588.104492 
	C416.696381,579.408813 416.661438,579.249634 408.133789,579.392395 
	C387.598724,579.736023 367.286652,578.272827 347.248077,573.372070 
	C301.743347,562.243042 267.300568,525.734680 259.981384,479.431061 
	C255.482117,450.967102 259.635620,423.111206 271.126923,396.880554 
	C297.015411,337.786011 341.347321,298.226624 402.057587,277.069214 
	C426.497559,268.551880 451.918121,265.773254 477.767609,266.569183 
	C482.198517,266.705627 487.439484,268.359558 490.923065,265.690216 
	C494.304382,263.099274 493.099854,257.657349 494.025665,253.500626 
	C502.238953,216.624771 535.903992,185.937378 573.622559,180.649841 
	C630.455017,172.682816 679.375854,209.555679 688.903931,264.062378 
	C694.018005,293.317871 688.898010,320.820648 668.942078,344.153625 
	C666.260437,347.289032 666.254517,349.551178 668.602783,352.824219 
	C680.462891,369.355133 691.775696,386.226257 699.791321,405.073059 
	C709.312683,427.460449 714.975220,450.669830 716.505188,475.035309 
	C717.583069,492.201477 717.135193,509.338593 717.166077,526.482971 
	C717.306702,604.481384 717.183777,682.480164 717.304810,760.478638 
	C717.317139,768.449707 715.448914,775.029114 707.919312,778.826111 
	C700.009766,782.814697 692.484070,781.804382 685.362732,776.684448 
	C663.584961,761.027344 641.798889,745.381836 619.995911,729.759949 
	C603.880798,718.213440 587.603516,706.886902 571.690857,695.068665 
	C567.573425,692.010803 564.827515,692.118286 560.862732,695.008667 
	C538.108765,711.596558 515.192993,727.962463 492.330933,744.402039 
	C490.302185,745.860901 488.264282,747.307068 485.944763,748.974731 
M310.499725,428.939026 
	C307.872772,439.106049 306.181549,449.370819 305.907562,459.928284 
	C305.202209,487.110382 316.808441,507.022125 340.648376,519.833557 
	C355.462982,527.794800 371.620056,531.068787 388.187531,531.544678 
	C408.500946,532.128174 428.842468,531.731750 449.171844,531.763977 
	C459.532928,531.780457 463.332092,535.565002 463.333160,545.881104 
	C463.338531,597.038086 463.328339,648.195129 463.382935,699.352051 
	C463.385101,701.383118 462.520081,703.706421 464.622864,705.556946 
	C466.922577,705.422852 468.427124,703.726929 470.136566,702.498962 
	C497.330078,682.966187 524.470276,663.358887 551.706665,643.886108 
	C561.934875,636.573242 570.342163,636.554138 580.665588,643.897644 
	C604.554810,660.890930 628.319519,678.059082 652.146301,695.140198 
	C657.614197,699.060120 663.128723,702.915039 668.807495,706.931213 
	C670.563110,704.031555 670.617981,701.710938 670.586243,699.400024 
	C670.444458,689.074341 670.150024,678.749451 670.126160,668.423767 
	C670.060791,640.106506 670.452271,611.783630 670.015930,583.472900 
	C669.466431,547.827698 671.871460,512.179749 669.785095,476.546722 
	C668.258789,450.479248 660.510986,426.265167 647.331055,403.814392 
	C637.115295,386.412598 624.360596,371.146057 608.154602,358.913025 
	C602.983643,355.009735 601.479797,347.283264 605.996094,343.727051 
	C613.989990,337.432465 619.356506,328.902924 626.377319,321.822327 
	C640.470093,307.609619 645.138611,289.955078 642.203064,270.823059 
	C638.557556,247.064774 617.850952,228.818100 595.721802,227.273605 
	C564.354248,225.084305 545.280090,242.807404 538.134338,264.521729 
	C534.137207,276.668030 534.233826,289.064209 534.309570,301.547455 
	C534.362183,310.207794 531.344727,313.198090 522.576965,313.236877 
	C512.579041,313.281158 502.580780,313.261597 492.582703,313.245941 
	C475.779480,313.219635 458.866516,312.320770 442.291809,315.547607 
	C377.243958,328.211517 334.078552,366.659393 310.499725,428.939026 
z"></path>
<path fill="#967151" opacity="1.000000" stroke="#967151" stroke-width="12" stroke-linejoin="round" stroke-linecap="round" d="
M459.886200,394.174286 
	C474.731323,414.221375 465.795258,438.640503 442.129669,443.619843 
	C426.273926,446.955963 410.453949,436.350555 406.965393,420.046417 
	C403.582642,404.236847 413.990723,388.047607 429.660095,384.701752 
	C441.374847,382.200317 451.364532,385.254822 459.886200,394.174286 
z"></path>
</svg>